<svg xmlns="http://www.w3.org/2000/svg" width="24" height="25" viewBox="0 0 24 25" fill="none">
<g clip-path="url(#clip0_70_1192)">
<path d="M24 12.75C24 6.12258 18.6274 0.75 12 0.75C5.37258 0.75 0 6.12258 0 12.75C0 18.7395 4.3882 23.704 10.125 24.6042V16.2188H7.07812V12.75H10.125V10.1063C10.125 7.09875 11.9166 5.4375 14.6576 5.4375C15.9701 5.4375 17.3438 5.67188 17.3438 5.67188V8.625H15.8306C14.34 8.625 13.875 9.55008 13.875 10.5V12.75H17.2031L16.6711 16.2188H13.875V24.6042C19.6118 23.704 24 18.7395 24 12.75Z" fill="#0B0404"/>
</g>
<defs>
<clipPath id="clip0_70_1192">
<rect width="24" height="24" fill="white" transform="translate(0 0.75)"/>
</clipPath>
</defs>
</svg>