<svg xmlns="http://www.w3.org/2000/svg" width="24" height="25" viewBox="0 0 24 25" fill="none">
<g clip-path="url(#clip0_70_1193)">
<path d="M12 2.91094C15.2063 2.91094 15.5859 2.925 16.8469 2.98125C18.0188 3.03281 18.6516 3.22969 19.0734 3.39375C19.6313 3.60938 20.0344 3.87188 20.4516 4.28906C20.8734 4.71094 21.1313 5.10938 21.3469 5.66719C21.5109 6.08906 21.7078 6.72656 21.7594 7.89375C21.8156 9.15937 21.8297 9.53906 21.8297 12.7406C21.8297 15.9469 21.8156 16.3266 21.7594 17.5875C21.7078 18.7594 21.5109 19.3922 21.3469 19.8141C21.1313 20.3719 20.8687 20.775 20.4516 21.1922C20.0297 21.6141 19.6313 21.8719 19.0734 22.0875C18.6516 22.2516 18.0141 22.4484 16.8469 22.5C15.5813 22.5562 15.2016 22.5703 12 22.5703C8.79375 22.5703 8.41406 22.5562 7.15313 22.5C5.98125 22.4484 5.34844 22.2516 4.92656 22.0875C4.36875 21.8719 3.96563 21.6094 3.54844 21.1922C3.12656 20.7703 2.86875 20.3719 2.65313 19.8141C2.48906 19.3922 2.29219 18.7547 2.24063 17.5875C2.18438 16.3219 2.17031 15.9422 2.17031 12.7406C2.17031 9.53438 2.18438 9.15469 2.24063 7.89375C2.29219 6.72187 2.48906 6.08906 2.65313 5.66719C2.86875 5.10938 3.13125 4.70625 3.54844 4.28906C3.97031 3.86719 4.36875 3.60938 4.92656 3.39375C5.34844 3.22969 5.98594 3.03281 7.15313 2.98125C8.41406 2.925 8.79375 2.91094 12 2.91094ZM12 0.75C8.74219 0.75 8.33438 0.764062 7.05469 0.820312C5.77969 0.876563 4.90313 1.08281 4.14375 1.37812C3.35156 1.6875 2.68125 2.09531 2.01563 2.76562C1.34531 3.43125 0.9375 4.10156 0.628125 4.88906C0.332812 5.65313 0.126563 6.525 0.0703125 7.8C0.0140625 9.08437 0 9.49219 0 12.75C0 16.0078 0.0140625 16.4156 0.0703125 17.6953C0.126563 18.9703 0.332812 19.8469 0.628125 20.6063C0.9375 21.3984 1.34531 22.0688 2.01563 22.7344C2.68125 23.4 3.35156 23.8125 4.13906 24.1172C4.90313 24.4125 5.775 24.6187 7.05 24.675C8.32969 24.7312 8.7375 24.7453 11.9953 24.7453C15.2531 24.7453 15.6609 24.7312 16.9406 24.675C18.2156 24.6187 19.0922 24.4125 19.8516 24.1172C20.6391 23.8125 21.3094 23.4 21.975 22.7344C22.6406 22.0688 23.0531 21.3984 23.3578 20.6109C23.6531 19.8469 23.8594 18.975 23.9156 17.7C23.9719 16.4203 23.9859 16.0125 23.9859 12.7547C23.9859 9.49688 23.9719 9.08906 23.9156 7.80938C23.8594 6.53438 23.6531 5.65781 23.3578 4.89844C23.0625 4.10156 22.6547 3.43125 21.9844 2.76562C21.3188 2.1 20.6484 1.6875 19.8609 1.38281C19.0969 1.0875 18.225 0.88125 16.95 0.825C15.6656 0.764063 15.2578 0.75 12 0.75Z" fill="#0B0404"/>
<path d="M12 6.58594C8.59688 6.58594 5.83594 9.34688 5.83594 12.75C5.83594 16.1531 8.59688 18.9141 12 18.9141C15.4031 18.9141 18.1641 16.1531 18.1641 12.75C18.1641 9.34688 15.4031 6.58594 12 6.58594ZM12 16.7484C9.79219 16.7484 8.00156 14.9578 8.00156 12.75C8.00156 10.5422 9.79219 8.75156 12 8.75156C14.2078 8.75156 15.9984 10.5422 15.9984 12.75C15.9984 14.9578 14.2078 16.7484 12 16.7484Z" fill="#0B0404"/>
<path d="M19.8469 6.34238C19.8469 7.13926 19.2 7.78145 18.4078 7.78145C17.6109 7.78145 16.9688 7.13457 16.9688 6.34238C16.9688 5.54551 17.6156 4.90332 18.4078 4.90332C19.2 4.90332 19.8469 5.5502 19.8469 6.34238Z" fill="#0B0404"/>
</g>
<defs>
<clipPath id="clip0_70_1193">
<rect width="24" height="24" fill="white" transform="translate(0 0.75)"/>
</clipPath>
</defs>
</svg>