<svg xmlns="http://www.w3.org/2000/svg" width="24" height="25" viewBox="0 0 24 25" fill="none">
<path d="M22.7747 7.12619C22.5154 6.16228 21.7554 5.40244 20.7916 5.14288C19.0309 4.66113 11.988 4.66113 11.988 4.66113C11.988 4.66113 4.94536 4.66113 3.18466 5.12462C2.23943 5.3839 1.46091 6.16241 1.20163 7.12619C0.738281 8.88675 0.738281 12.5379 0.738281 12.5379C0.738281 12.5379 0.738281 16.2075 1.20163 17.9496C1.46118 18.9134 2.22089 19.6733 3.1848 19.9328C4.9639 20.4147 11.9883 20.4147 11.9883 20.4147C11.9883 20.4147 19.0309 20.4147 20.7916 19.9512C21.7555 19.6918 22.5154 18.932 22.7749 17.9682C23.2381 16.2075 23.2381 12.5565 23.2381 12.5565C23.2381 12.5565 23.2567 8.88675 22.7747 7.12619ZM9.7457 15.911V9.16484L15.6022 12.5379L9.7457 15.911Z" fill="#0B0404"/>
</svg>